<svg height="184" viewBox="0 0 832 184" width="832" xmlns="http://www.w3.org/2000/svg"><g fill="#fff" fill-rule="evenodd"><path d="m281.468 48.818c0-9.502-7.73-17.232-17.231-17.232h-13.398v-29.383h-19.146v151.583h19.146v-22.228c.016.064.037.106.048.164v-75.894c0-6.294 2.304-6.78 5.905-6.78s5.911.486 5.911 6.78v97.958h18.765z"/><path d="m403.852 130.609c0 6.295-2.178 6.781-5.572 6.781-3.39 0-5.562-.486-5.562-6.781v-73.456c0-6.294 2.172-6.778 5.562-6.778 3.394 0 5.572.484 5.572 6.778zm-5.625-100.265c-13.726 0-24.887 11.164-24.887 24.887v74.91c0 13.723 11.161 24.885 24.887 24.885 13.72 0 24.881-11.162 24.881-24.885v-74.91c0-13.723-11.161-24.887-24.881-24.887z"/><path d="m829.161 31.586h-17.02v99.549c0 1.095-.074 1.999-.211 2.771v.735h-.159c-.777 2.979-2.776 3.275-5.546 3.275-2.755 0-4.754-.296-5.536-3.275h-.238v-1.285c-.085-.648-.127-1.377-.127-2.221v-99.549h-19.019v104.971c0 9.499 7.725 17.229 17.227 17.229h13.398v28.972h19.145v-151.172z"/><path d="m696.112 130.302c0 4.513-1.126 6.036-3.014 6.538-.899.468-2.036.55-3.368.55-3.384 0-5.562-.486-5.562-6.781v-73.456c0-4.512 1.12-6.033 3.003-6.535.899-.471 2.036-.55 3.368-.55 3.394 0 5.573.484 5.573 6.778zm16.332-128.099h-17.231v29.383h-13.398c-9.501 0-17.226 7.73-17.226 17.232v87.739c0 9.499 7.725 17.229 17.226 17.229h32.543v-151.583z"/><path d="m638.644 130.609c0 6.295-2.31 6.781-5.911 6.781-3.595 0-5.906-.486-5.906-6.781v-73.456c0-6.294 2.306-6.778 5.906-6.778 3.601 0 5.911.484 5.911 6.778zm-5.937-100.265c-13.721 0-24.888 11.164-24.888 24.887v74.91c0 13.723 11.167 24.885 24.888 24.885 13.726 0 24.887-11.162 24.887-24.885v-74.91c0-13.723-11.161-24.887-24.887-24.887z"/><path d="m360.935 6.025c-3.325-3.09-7.465-4.84-11.97-5.062l-2.009-.101v152.924h19.145v-135.597c0-4.683-1.882-9.118-5.166-12.164"/><path d="m613.324 2.203h-47.855v19.145h15.311v132.438h19.151v-132.438h15.312v-19.145z"/><path d="m320.7 130.609c0 6.295-2.179 6.781-5.568 6.781-3.395 0-5.567-.486-5.567-6.781v-73.456c0-6.294 2.172-6.778 5.567-6.778 3.389 0 5.568.484 5.568 6.778zm-5.626-100.265c-13.72 0-24.887 11.164-24.887 24.887v74.91c0 13.723 11.167 24.885 24.887 24.885s24.887-11.162 24.887-24.885v-74.91c0-13.723-11.167-24.887-24.887-24.887z"/><path d="m106.126 66.044v-10.813c0-13.723-11.161-24.887-24.882-24.887-13.726 0-24.887 11.164-24.887 24.887v29.799c0 9.499 7.73 17.226 17.231 17.226h13.398v10.781c.021.412.042.846.042 1.324v18.271c0 6.297-2.268 6.783-5.794 6.783-3.527 0-5.79-.486-5.79-6.783v-13.303h-19.087v10.812c0 13.723 11.161 24.885 24.887 24.885 13.721 0 24.882-11.162 24.882-24.885v-29.802c0-9.498-7.725-17.225-17.226-17.225h-13.398v-25.485h.085v-.272c0-6.292 2.22-6.779 5.679-6.779 3.457 0 5.678.487 5.678 6.779v.272h.042v8.415z"/><path d="m30.629 63.247h-.052v.071c0 6.294-2.221 6.781-5.679 6.781s-5.679-.487-5.679-6.781v-.071h-.069v-35.002h.069v-.444c0-6.295 2.216-6.779 5.679-6.779 3.458 0 5.679.484 5.679 6.779v.444h.052zm1.914-61.044h-32.543v151.583h19.15v-66.22h13.393c9.501 0 17.232-7.728 17.232-17.229v-50.906c0-9.499-7.731-17.228-17.232-17.228z"/><path d="m462.213 126.017h-.084v4.153c0 6.295-2.311 6.779-5.911 6.779-3.601 0-5.906-.484-5.906-6.779v-73.459c0-6.294 2.305-6.778 5.906-6.778 3.6 0 5.911.484 5.911 6.778v4.368h.084zm-5.742-95.673c-13.72 0-24.882 11.164-24.882 24.887v81.326c0 9.499 7.725 17.229 17.226 17.229h13.398v11.066h-27.314v19.148h29.234c9.501 0 17.225-7.73 17.225-17.231v-111.538c0-13.723-11.161-24.887-24.887-24.887z"/><path d="m198.072 136.663c-3.558 0-5.843-.486-5.843-6.781v-73.453c0-6.295 2.285-6.781 5.843-6.781 3.563 0 5.848.486 5.848 6.781v9.615h19.055v-10.813c0-13.723-11.161-24.887-24.887-24.887-13.721 0-24.882 11.164-24.882 24.887v74.91c0 13.723 11.161 24.885 24.882 24.885 13.726 0 24.887-11.162 24.887-24.885v-10.812h-19.055v10.553c0 6.295-2.285 6.781-5.848 6.781"/><path d="m754.214 130.02c0 1.692-.18 2.953-.508 3.909v.712h-.301c-1 1.937-2.877 2.162-5.335 2.162-2.459 0-4.336-.225-5.33-2.162h-.513v-1.473c-.19-.843-.291-1.872-.291-3.148v-44.136c0-1.277.101-2.305.291-3.148v-.757h.206c.883-2.606 2.898-2.876 5.637-2.876 3.738 0 6.144.484 6.144 6.781zm1.412-98.434h-29.234v19.146h27.314v12.102h-13.398c-9.501 0-17.226 7.73-17.226 17.229v56.494c0 9.499 7.725 17.229 17.226 17.229h32.543v-104.968c0-9.502-7.73-17.232-17.225-17.232z"/><path d="m162.568 31.586h-17.02v99.549c0 1.095-.074 1.999-.206 2.771v.735h-.159c-.782 2.979-2.781 3.275-5.546 3.275-2.76 0-4.759-.296-5.536-3.275h-.243v-1.285c-.079-.648-.127-1.377-.127-2.221v-99.549h-19.018v104.971c0 9.499 7.729 17.229 17.231 17.229h13.398v28.972h19.145v-151.172z"/><path d="m536.225 31.586h-17.02v99.549c0 1.095-.08 1.999-.212 2.771v.735h-.158c-.783 2.979-2.781 3.275-5.546 3.275-2.755 0-4.754-.296-5.536-3.275h-.244v-1.285c-.079-.648-.121-1.377-.121-2.221v-99.549h-19.024v104.971c0 9.499 7.73 17.229 17.231 17.229h13.398v28.972h19.145v-151.172z"/><path d="m281.468 48.818c0-9.502-7.73-17.232-17.231-17.232h-13.398v-29.383h-19.146v151.583h19.146v-22.228c.016.064.037.106.048.164v-75.894c0-6.294 2.304-6.78 5.905-6.78s5.911.486 5.911 6.78v97.958h18.765z"/><path d="m403.852 130.609c0 6.295-2.178 6.781-5.572 6.781-3.39 0-5.562-.486-5.562-6.781v-73.456c0-6.294 2.172-6.778 5.562-6.778 3.394 0 5.572.484 5.572 6.778zm-5.625-100.265c-13.726 0-24.887 11.164-24.887 24.887v74.91c0 13.723 11.161 24.885 24.887 24.885 13.72 0 24.881-11.162 24.881-24.885v-74.91c0-13.723-11.161-24.887-24.881-24.887z"/><path d="m829.161 31.586h-17.02v99.549c0 1.095-.074 1.999-.211 2.771v.735h-.159c-.777 2.979-2.776 3.275-5.546 3.275-2.755 0-4.754-.296-5.536-3.275h-.238v-1.285c-.085-.648-.127-1.377-.127-2.221v-99.549h-19.019v104.971c0 9.499 7.725 17.229 17.227 17.229h13.398v28.972h19.145v-151.172z"/><path d="m696.112 130.302c0 4.513-1.126 6.036-3.014 6.538-.899.468-2.036.55-3.368.55-3.384 0-5.562-.486-5.562-6.781v-73.456c0-4.512 1.12-6.033 3.003-6.535.899-.471 2.036-.55 3.368-.55 3.394 0 5.573.484 5.573 6.778zm16.332-128.099h-17.231v29.383h-13.398c-9.501 0-17.226 7.73-17.226 17.232v87.739c0 9.499 7.725 17.229 17.226 17.229h32.543v-151.583z"/><path d="m638.644 130.609c0 6.295-2.31 6.781-5.911 6.781-3.595 0-5.906-.486-5.906-6.781v-73.456c0-6.294 2.306-6.778 5.906-6.778 3.601 0 5.911.484 5.911 6.778zm-5.937-100.265c-13.721 0-24.888 11.164-24.888 24.887v74.91c0 13.723 11.167 24.885 24.888 24.885 13.726 0 24.887-11.162 24.887-24.885v-74.91c0-13.723-11.161-24.887-24.887-24.887z"/><path d="m360.935 6.025c-3.325-3.09-7.465-4.84-11.97-5.062l-2.009-.101v152.924h19.145v-135.597c0-4.683-1.882-9.118-5.166-12.164"/><path d="m613.324 2.203h-47.855v19.145h15.311v132.438h19.151v-132.438h15.312v-19.145z"/><path d="m320.7 130.609c0 6.295-2.179 6.781-5.568 6.781-3.395 0-5.567-.486-5.567-6.781v-73.456c0-6.294 2.172-6.778 5.567-6.778 3.389 0 5.568.484 5.568 6.778zm-5.626-100.265c-13.72 0-24.887 11.164-24.887 24.887v74.91c0 13.723 11.167 24.885 24.887 24.885s24.887-11.162 24.887-24.885v-74.91c0-13.723-11.167-24.887-24.887-24.887z"/><path d="m106.126 66.044v-10.813c0-13.723-11.161-24.887-24.882-24.887-13.726 0-24.887 11.164-24.887 24.887v29.799c0 9.499 7.73 17.226 17.231 17.226h13.398v10.781c.021.412.042.846.042 1.324v18.271c0 6.297-2.268 6.783-5.794 6.783-3.527 0-5.79-.486-5.79-6.783v-13.303h-19.087v10.812c0 13.723 11.161 24.885 24.887 24.885 13.721 0 24.882-11.162 24.882-24.885v-29.802c0-9.498-7.725-17.225-17.226-17.225h-13.398v-25.485h.085v-.272c0-6.292 2.22-6.779 5.679-6.779 3.457 0 5.678.487 5.678 6.779v.272h.042v8.415z"/><path d="m30.629 63.247h-.052v.071c0 6.294-2.221 6.781-5.679 6.781s-5.679-.487-5.679-6.781v-.071h-.069v-35.002h.069v-.444c0-6.295 2.216-6.779 5.679-6.779 3.458 0 5.679.484 5.679 6.779v.444h.052zm1.914-61.044h-32.543v151.583h19.15v-66.22h13.393c9.501 0 17.232-7.728 17.232-17.229v-50.906c0-9.499-7.731-17.228-17.232-17.228z"/><path d="m462.213 126.017h-.084v4.153c0 6.295-2.311 6.779-5.911 6.779-3.601 0-5.906-.484-5.906-6.779v-73.459c0-6.294 2.305-6.778 5.906-6.778 3.6 0 5.911.484 5.911 6.778v4.368h.084zm-5.742-95.673c-13.72 0-24.882 11.164-24.882 24.887v81.326c0 9.499 7.725 17.229 17.226 17.229h13.398v11.066h-27.314v19.148h29.234c9.501 0 17.225-7.73 17.225-17.231v-111.538c0-13.723-11.161-24.887-24.887-24.887z"/><path d="m198.072 136.663c-3.558 0-5.843-.486-5.843-6.781v-73.453c0-6.295 2.285-6.781 5.843-6.781 3.563 0 5.848.486 5.848 6.781v9.615h19.055v-10.813c0-13.723-11.161-24.887-24.887-24.887-13.721 0-24.882 11.164-24.882 24.887v74.91c0 13.723 11.161 24.885 24.882 24.885 13.726 0 24.887-11.162 24.887-24.885v-10.812h-19.055v10.553c0 6.295-2.285 6.781-5.848 6.781"/><path d="m754.214 130.02c0 1.692-.18 2.953-.508 3.909v.712h-.301c-1 1.937-2.877 2.162-5.335 2.162-2.459 0-4.336-.225-5.33-2.162h-.513v-1.473c-.19-.843-.291-1.872-.291-3.148v-44.136c0-1.277.101-2.305.291-3.148v-.757h.206c.883-2.606 2.898-2.876 5.637-2.876 3.738 0 6.144.484 6.144 6.781zm1.412-98.434h-29.234v19.146h27.314v12.102h-13.398c-9.501 0-17.226 7.73-17.226 17.229v56.494c0 9.499 7.725 17.229 17.226 17.229h32.543v-104.968c0-9.502-7.73-17.232-17.225-17.232z"/><path d="m162.568 31.586h-17.02v99.549c0 1.095-.074 1.999-.206 2.771v.735h-.159c-.782 2.979-2.781 3.275-5.546 3.275-2.76 0-4.759-.296-5.536-3.275h-.243v-1.285c-.079-.648-.127-1.377-.127-2.221v-99.549h-19.018v104.971c0 9.499 7.729 17.229 17.231 17.229h13.398v28.972h19.145v-151.172z"/><path d="m536.225 31.586h-17.02v99.549c0 1.095-.08 1.999-.212 2.771v.735h-.158c-.783 2.979-2.781 3.275-5.546 3.275-2.755 0-4.754-.296-5.536-3.275h-.244v-1.285c-.079-.648-.121-1.377-.121-2.221v-99.549h-19.024v104.971c0 9.499 7.73 17.229 17.231 17.229h13.398v28.972h19.145v-151.172z"/></g></svg>