<?xml version="1.0" encoding="UTF-8"?>
<svg width="832px" height="184px" viewBox="0 0 832 184" version="1.1" xmlns="http://www.w3.org/2000/svg" xmlns:xlink="http://www.w3.org/1999/xlink">
    <!-- Generator: Sketch 43.2 (39069) - http://www.bohemiancoding.com/sketch -->
    <title>psychology-today-logo-2012-white</title>
    <desc>Created with Sketch.</desc>
    <defs></defs>
    <g id="Page-1" stroke="none" stroke-width="1" fill="none" fill-rule="evenodd">
        <g id="psychology-today-logo-2012-white" fill="#FFFFFF">
            <path d="M281.468,48.818 C281.468,39.316 273.738,31.586 264.237,31.586 L250.839,31.586 L250.839,2.203 L231.693,2.203 L231.693,153.786 L250.839,153.786 L250.839,131.558 C250.855,131.622 250.876,131.664 250.887,131.722 L250.887,55.828 C250.887,49.534 253.191,49.048 256.792,49.048 C260.393,49.048 262.703,49.534 262.703,55.828 L262.703,153.786 L281.468,153.786 L281.468,48.818" id="Fill-1"></path>
            <path d="M403.852,130.609 C403.852,136.904 401.674,137.39 398.28,137.39 C394.89,137.39 392.718,136.904 392.718,130.609 L392.718,57.153 C392.718,50.859 394.89,50.375 398.28,50.375 C401.674,50.375 403.852,50.859 403.852,57.153 L403.852,130.609 L403.852,130.609 Z M398.227,30.344 C384.501,30.344 373.34,41.508 373.34,55.231 L373.34,130.141 C373.34,143.864 384.501,155.026 398.227,155.026 C411.947,155.026 423.108,143.864 423.108,130.141 L423.108,55.231 C423.108,41.508 411.947,30.344 398.227,30.344 L398.227,30.344 Z" id="Fill-2"></path>
            <path d="M829.161,31.586 L812.141,31.586 L812.141,131.135 C812.141,132.23 812.067,133.134 811.93,133.906 L811.93,134.641 L811.771,134.641 C810.994,137.62 808.995,137.916 806.225,137.916 C803.47,137.916 801.471,137.62 800.689,134.641 L800.451,134.641 L800.451,133.356 C800.366,132.708 800.324,131.979 800.324,131.135 L800.324,31.586 L781.305,31.586 L781.305,136.557 C781.305,146.056 789.03,153.786 798.532,153.786 L811.93,153.786 L811.93,182.758 L831.075,182.758 L831.075,31.586 L829.161,31.586" id="Fill-3"></path>
            <path d="M696.112,130.302 C696.112,134.815 694.986,136.338 693.098,136.84 C692.199,137.308 691.062,137.39 689.73,137.39 C686.346,137.39 684.168,136.904 684.168,130.609 L684.168,57.153 C684.168,52.641 685.288,51.12 687.171,50.618 C688.07,50.147 689.207,50.068 690.539,50.068 C693.933,50.068 696.112,50.552 696.112,56.846 L696.112,130.302 L696.112,130.302 Z M712.444,2.203 L695.213,2.203 L695.213,31.586 L681.815,31.586 C672.314,31.586 664.589,39.316 664.589,48.818 L664.589,136.557 C664.589,146.056 672.314,153.786 681.815,153.786 L714.358,153.786 L714.358,2.203 L712.444,2.203 L712.444,2.203 Z" id="Fill-4"></path>
            <path d="M638.644,130.609 C638.644,136.904 636.334,137.39 632.733,137.39 C629.138,137.39 626.827,136.904 626.827,130.609 L626.827,57.153 C626.827,50.859 629.133,50.375 632.733,50.375 C636.334,50.375 638.644,50.859 638.644,57.153 L638.644,130.609 L638.644,130.609 Z M632.707,30.344 C618.986,30.344 607.819,41.508 607.819,55.231 L607.819,130.141 C607.819,143.864 618.986,155.026 632.707,155.026 C646.433,155.026 657.594,143.864 657.594,130.141 L657.594,55.231 C657.594,41.508 646.433,30.344 632.707,30.344 L632.707,30.344 Z" id="Fill-5"></path>
            <path d="M360.935,6.025 C357.61,2.935 353.47,1.185 348.965,0.963 L346.956,0.862 L346.956,153.786 L366.101,153.786 L366.101,18.189 C366.101,13.506 364.219,9.071 360.935,6.025" id="Fill-6"></path>
            <path d="M613.324,2.203 L565.469,2.203 L565.469,21.348 L580.78,21.348 L580.78,153.786 L599.931,153.786 L599.931,21.348 L615.243,21.348 L615.243,2.203 L613.324,2.203" id="Fill-7"></path>
            <path d="M320.7,130.609 C320.7,136.904 318.521,137.39 315.132,137.39 C311.737,137.39 309.565,136.904 309.565,130.609 L309.565,57.153 C309.565,50.859 311.737,50.375 315.132,50.375 C318.521,50.375 320.7,50.859 320.7,57.153 L320.7,130.609 L320.7,130.609 Z M315.074,30.344 C301.354,30.344 290.187,41.508 290.187,55.231 L290.187,130.141 C290.187,143.864 301.354,155.026 315.074,155.026 C328.794,155.026 339.961,143.864 339.961,130.141 L339.961,55.231 C339.961,41.508 328.794,30.344 315.074,30.344 L315.074,30.344 Z" id="Fill-8"></path>
            <path d="M106.126,66.044 L106.126,55.231 C106.126,41.508 94.965,30.344 81.244,30.344 C67.518,30.344 56.357,41.508 56.357,55.231 L56.357,85.03 C56.357,94.529 64.087,102.256 73.588,102.256 L86.986,102.256 L86.986,113.037 C87.007,113.449 87.028,113.883 87.028,114.361 L87.028,132.632 C87.028,138.929 84.76,139.415 81.234,139.415 C77.707,139.415 75.444,138.929 75.444,132.632 L75.444,119.329 L56.357,119.329 L56.357,130.141 C56.357,143.864 67.518,155.026 81.244,155.026 C94.965,155.026 106.126,143.864 106.126,130.141 L106.126,100.339 C106.126,90.841 98.401,83.114 88.9,83.114 L75.502,83.114 L75.502,57.629 L75.587,57.629 L75.587,57.357 C75.587,51.065 77.807,50.578 81.266,50.578 C84.723,50.578 86.944,51.065 86.944,57.357 L86.944,57.629 L86.986,57.629 L86.986,66.044 L106.126,66.044" id="Fill-9"></path>
            <path d="M30.629,63.247 L30.577,63.247 L30.577,63.318 C30.577,69.612 28.356,70.099 24.898,70.099 C21.44,70.099 19.219,69.612 19.219,63.318 L19.219,63.247 L19.15,63.247 L19.15,28.245 L19.219,28.245 L19.219,27.801 C19.219,21.506 21.435,21.022 24.898,21.022 C28.356,21.022 30.577,21.506 30.577,27.801 L30.577,28.245 L30.629,28.245 L30.629,63.247 L30.629,63.247 Z M32.543,2.203 L0,2.203 L0,153.786 L19.15,153.786 L19.15,87.566 L32.543,87.566 C42.044,87.566 49.775,79.838 49.775,70.337 L49.775,19.431 C49.775,9.932 42.044,2.203 32.543,2.203 L32.543,2.203 Z" id="Fill-11"></path>
            <path d="M462.213,126.017 L462.129,126.017 L462.129,130.17 C462.129,136.465 459.818,136.949 456.218,136.949 C452.617,136.949 450.312,136.465 450.312,130.17 L450.312,56.711 C450.312,50.417 452.617,49.933 456.218,49.933 C459.818,49.933 462.129,50.417 462.129,56.711 L462.129,61.079 L462.213,61.079 L462.213,126.017 L462.213,126.017 Z M456.471,30.344 C442.751,30.344 431.589,41.508 431.589,55.231 L431.589,136.557 C431.589,146.056 439.314,153.786 448.815,153.786 L462.213,153.786 L462.213,164.852 L434.899,164.852 L434.899,184 L464.133,184 C473.634,184 481.358,176.27 481.358,166.769 L481.358,55.231 C481.358,41.508 470.197,30.344 456.471,30.344 L456.471,30.344 Z" id="Fill-13"></path>
            <path d="M198.072,136.663 C194.514,136.663 192.229,136.177 192.229,129.882 L192.229,56.429 C192.229,50.134 194.514,49.648 198.072,49.648 C201.635,49.648 203.92,50.134 203.92,56.429 L203.92,66.044 L222.975,66.044 L222.975,55.231 C222.975,41.508 211.814,30.344 198.088,30.344 C184.367,30.344 173.206,41.508 173.206,55.231 L173.206,130.141 C173.206,143.864 184.367,155.026 198.088,155.026 C211.814,155.026 222.975,143.864 222.975,130.141 L222.975,119.329 L203.92,119.329 L203.92,129.882 C203.92,136.177 201.635,136.663 198.072,136.663" id="Fill-14"></path>
            <path d="M754.214,130.02 C754.214,131.712 754.034,132.973 753.706,133.929 L753.706,134.641 L753.405,134.641 C752.405,136.578 750.528,136.803 748.07,136.803 C745.611,136.803 743.734,136.578 742.74,134.641 L742.227,134.641 L742.227,133.168 C742.037,132.325 741.936,131.296 741.936,130.02 L741.936,85.884 C741.936,84.607 742.037,83.579 742.227,82.736 L742.227,81.979 L742.433,81.979 C743.316,79.373 745.331,79.103 748.07,79.103 C751.808,79.103 754.214,79.587 754.214,85.884 L754.214,130.02 L754.214,130.02 Z M755.626,31.586 L726.392,31.586 L726.392,50.732 L753.706,50.732 L753.706,62.834 L740.308,62.834 C730.807,62.834 723.082,70.564 723.082,80.063 L723.082,136.557 C723.082,146.056 730.807,153.786 740.308,153.786 L772.851,153.786 L772.851,48.818 C772.851,39.316 765.121,31.586 755.626,31.586 L755.626,31.586 Z" id="Fill-15"></path>
            <path d="M162.568,31.586 L145.548,31.586 L145.548,131.135 C145.548,132.23 145.474,133.134 145.342,133.906 L145.342,134.641 L145.183,134.641 C144.401,137.62 142.402,137.916 139.637,137.916 C136.877,137.916 134.878,137.62 134.101,134.641 L133.858,134.641 L133.858,133.356 C133.779,132.708 133.731,131.979 133.731,131.135 L133.731,31.586 L114.713,31.586 L114.713,136.557 C114.713,146.056 122.442,153.786 131.944,153.786 L145.342,153.786 L145.342,182.758 L164.487,182.758 L164.487,31.586 L162.568,31.586" id="Fill-16"></path>
            <path d="M536.225,31.586 L519.205,31.586 L519.205,131.135 C519.205,132.23 519.125,133.134 518.993,133.906 L518.993,134.641 L518.835,134.641 C518.052,137.62 516.054,137.916 513.289,137.916 C510.534,137.916 508.535,137.62 507.753,134.641 L507.509,134.641 L507.509,133.356 C507.43,132.708 507.388,131.979 507.388,131.135 L507.388,31.586 L488.364,31.586 L488.364,136.557 C488.364,146.056 496.094,153.786 505.595,153.786 L518.993,153.786 L518.993,182.758 L538.138,182.758 L538.138,31.586 L536.225,31.586" id="Fill-17"></path>
            <path d="M281.468,48.818 C281.468,39.316 273.738,31.586 264.237,31.586 L250.839,31.586 L250.839,2.203 L231.693,2.203 L231.693,153.786 L250.839,153.786 L250.839,131.558 C250.855,131.622 250.876,131.664 250.887,131.722 L250.887,55.828 C250.887,49.534 253.191,49.048 256.792,49.048 C260.393,49.048 262.703,49.534 262.703,55.828 L262.703,153.786 L281.468,153.786 L281.468,48.818" id="Fill-18"></path>
            <path d="M403.852,130.609 C403.852,136.904 401.674,137.39 398.28,137.39 C394.89,137.39 392.718,136.904 392.718,130.609 L392.718,57.153 C392.718,50.859 394.89,50.375 398.28,50.375 C401.674,50.375 403.852,50.859 403.852,57.153 L403.852,130.609 L403.852,130.609 Z M398.227,30.344 C384.501,30.344 373.34,41.508 373.34,55.231 L373.34,130.141 C373.34,143.864 384.501,155.026 398.227,155.026 C411.947,155.026 423.108,143.864 423.108,130.141 L423.108,55.231 C423.108,41.508 411.947,30.344 398.227,30.344 L398.227,30.344 Z" id="Fill-19"></path>
            <path d="M829.161,31.586 L812.141,31.586 L812.141,131.135 C812.141,132.23 812.067,133.134 811.93,133.906 L811.93,134.641 L811.771,134.641 C810.994,137.62 808.995,137.916 806.225,137.916 C803.47,137.916 801.471,137.62 800.689,134.641 L800.451,134.641 L800.451,133.356 C800.366,132.708 800.324,131.979 800.324,131.135 L800.324,31.586 L781.305,31.586 L781.305,136.557 C781.305,146.056 789.03,153.786 798.532,153.786 L811.93,153.786 L811.93,182.758 L831.075,182.758 L831.075,31.586 L829.161,31.586" id="Fill-20"></path>
            <path d="M696.112,130.302 C696.112,134.815 694.986,136.338 693.098,136.84 C692.199,137.308 691.062,137.39 689.73,137.39 C686.346,137.39 684.168,136.904 684.168,130.609 L684.168,57.153 C684.168,52.641 685.288,51.12 687.171,50.618 C688.07,50.147 689.207,50.068 690.539,50.068 C693.933,50.068 696.112,50.552 696.112,56.846 L696.112,130.302 L696.112,130.302 Z M712.444,2.203 L695.213,2.203 L695.213,31.586 L681.815,31.586 C672.314,31.586 664.589,39.316 664.589,48.818 L664.589,136.557 C664.589,146.056 672.314,153.786 681.815,153.786 L714.358,153.786 L714.358,2.203 L712.444,2.203 L712.444,2.203 Z" id="Fill-21"></path>
            <path d="M638.644,130.609 C638.644,136.904 636.334,137.39 632.733,137.39 C629.138,137.39 626.827,136.904 626.827,130.609 L626.827,57.153 C626.827,50.859 629.133,50.375 632.733,50.375 C636.334,50.375 638.644,50.859 638.644,57.153 L638.644,130.609 L638.644,130.609 Z M632.707,30.344 C618.986,30.344 607.819,41.508 607.819,55.231 L607.819,130.141 C607.819,143.864 618.986,155.026 632.707,155.026 C646.433,155.026 657.594,143.864 657.594,130.141 L657.594,55.231 C657.594,41.508 646.433,30.344 632.707,30.344 L632.707,30.344 Z" id="Fill-22"></path>
            <path d="M360.935,6.025 C357.61,2.935 353.47,1.185 348.965,0.963 L346.956,0.862 L346.956,153.786 L366.101,153.786 L366.101,18.189 C366.101,13.506 364.219,9.071 360.935,6.025" id="Fill-23"></path>
            <path d="M613.324,2.203 L565.469,2.203 L565.469,21.348 L580.78,21.348 L580.78,153.786 L599.931,153.786 L599.931,21.348 L615.243,21.348 L615.243,2.203 L613.324,2.203" id="Fill-24"></path>
            <path d="M320.7,130.609 C320.7,136.904 318.521,137.39 315.132,137.39 C311.737,137.39 309.565,136.904 309.565,130.609 L309.565,57.153 C309.565,50.859 311.737,50.375 315.132,50.375 C318.521,50.375 320.7,50.859 320.7,57.153 L320.7,130.609 L320.7,130.609 Z M315.074,30.344 C301.354,30.344 290.187,41.508 290.187,55.231 L290.187,130.141 C290.187,143.864 301.354,155.026 315.074,155.026 C328.794,155.026 339.961,143.864 339.961,130.141 L339.961,55.231 C339.961,41.508 328.794,30.344 315.074,30.344 L315.074,30.344 Z" id="Fill-25"></path>
            <path d="M106.126,66.044 L106.126,55.231 C106.126,41.508 94.965,30.344 81.244,30.344 C67.518,30.344 56.357,41.508 56.357,55.231 L56.357,85.03 C56.357,94.529 64.087,102.256 73.588,102.256 L86.986,102.256 L86.986,113.037 C87.007,113.449 87.028,113.883 87.028,114.361 L87.028,132.632 C87.028,138.929 84.76,139.415 81.234,139.415 C77.707,139.415 75.444,138.929 75.444,132.632 L75.444,119.329 L56.357,119.329 L56.357,130.141 C56.357,143.864 67.518,155.026 81.244,155.026 C94.965,155.026 106.126,143.864 106.126,130.141 L106.126,100.339 C106.126,90.841 98.401,83.114 88.9,83.114 L75.502,83.114 L75.502,57.629 L75.587,57.629 L75.587,57.357 C75.587,51.065 77.807,50.578 81.266,50.578 C84.723,50.578 86.944,51.065 86.944,57.357 L86.944,57.629 L86.986,57.629 L86.986,66.044 L106.126,66.044" id="Fill-26"></path>
            <path d="M30.629,63.247 L30.577,63.247 L30.577,63.318 C30.577,69.612 28.356,70.099 24.898,70.099 C21.44,70.099 19.219,69.612 19.219,63.318 L19.219,63.247 L19.15,63.247 L19.15,28.245 L19.219,28.245 L19.219,27.801 C19.219,21.506 21.435,21.022 24.898,21.022 C28.356,21.022 30.577,21.506 30.577,27.801 L30.577,28.245 L30.629,28.245 L30.629,63.247 L30.629,63.247 Z M32.543,2.203 L0,2.203 L0,153.786 L19.15,153.786 L19.15,87.566 L32.543,87.566 C42.044,87.566 49.775,79.838 49.775,70.337 L49.775,19.431 C49.775,9.932 42.044,2.203 32.543,2.203 L32.543,2.203 Z" id="Fill-28"></path>
            <path d="M462.213,126.017 L462.129,126.017 L462.129,130.17 C462.129,136.465 459.818,136.949 456.218,136.949 C452.617,136.949 450.312,136.465 450.312,130.17 L450.312,56.711 C450.312,50.417 452.617,49.933 456.218,49.933 C459.818,49.933 462.129,50.417 462.129,56.711 L462.129,61.079 L462.213,61.079 L462.213,126.017 L462.213,126.017 Z M456.471,30.344 C442.751,30.344 431.589,41.508 431.589,55.231 L431.589,136.557 C431.589,146.056 439.314,153.786 448.815,153.786 L462.213,153.786 L462.213,164.852 L434.899,164.852 L434.899,184 L464.133,184 C473.634,184 481.358,176.27 481.358,166.769 L481.358,55.231 C481.358,41.508 470.197,30.344 456.471,30.344 L456.471,30.344 Z" id="Fill-30"></path>
            <path d="M198.072,136.663 C194.514,136.663 192.229,136.177 192.229,129.882 L192.229,56.429 C192.229,50.134 194.514,49.648 198.072,49.648 C201.635,49.648 203.92,50.134 203.92,56.429 L203.92,66.044 L222.975,66.044 L222.975,55.231 C222.975,41.508 211.814,30.344 198.088,30.344 C184.367,30.344 173.206,41.508 173.206,55.231 L173.206,130.141 C173.206,143.864 184.367,155.026 198.088,155.026 C211.814,155.026 222.975,143.864 222.975,130.141 L222.975,119.329 L203.92,119.329 L203.92,129.882 C203.92,136.177 201.635,136.663 198.072,136.663" id="Fill-31"></path>
            <path d="M754.214,130.02 C754.214,131.712 754.034,132.973 753.706,133.929 L753.706,134.641 L753.405,134.641 C752.405,136.578 750.528,136.803 748.07,136.803 C745.611,136.803 743.734,136.578 742.74,134.641 L742.227,134.641 L742.227,133.168 C742.037,132.325 741.936,131.296 741.936,130.02 L741.936,85.884 C741.936,84.607 742.037,83.579 742.227,82.736 L742.227,81.979 L742.433,81.979 C743.316,79.373 745.331,79.103 748.07,79.103 C751.808,79.103 754.214,79.587 754.214,85.884 L754.214,130.02 L754.214,130.02 Z M755.626,31.586 L726.392,31.586 L726.392,50.732 L753.706,50.732 L753.706,62.834 L740.308,62.834 C730.807,62.834 723.082,70.564 723.082,80.063 L723.082,136.557 C723.082,146.056 730.807,153.786 740.308,153.786 L772.851,153.786 L772.851,48.818 C772.851,39.316 765.121,31.586 755.626,31.586 L755.626,31.586 Z" id="Fill-32"></path>
            <path d="M162.568,31.586 L145.548,31.586 L145.548,131.135 C145.548,132.23 145.474,133.134 145.342,133.906 L145.342,134.641 L145.183,134.641 C144.401,137.62 142.402,137.916 139.637,137.916 C136.877,137.916 134.878,137.62 134.101,134.641 L133.858,134.641 L133.858,133.356 C133.779,132.708 133.731,131.979 133.731,131.135 L133.731,31.586 L114.713,31.586 L114.713,136.557 C114.713,146.056 122.442,153.786 131.944,153.786 L145.342,153.786 L145.342,182.758 L164.487,182.758 L164.487,31.586 L162.568,31.586" id="Fill-33"></path>
            <path d="M536.225,31.586 L519.205,31.586 L519.205,131.135 C519.205,132.23 519.125,133.134 518.993,133.906 L518.993,134.641 L518.835,134.641 C518.052,137.62 516.054,137.916 513.289,137.916 C510.534,137.916 508.535,137.62 507.753,134.641 L507.509,134.641 L507.509,133.356 C507.43,132.708 507.388,131.979 507.388,131.135 L507.388,31.586 L488.364,31.586 L488.364,136.557 C488.364,146.056 496.094,153.786 505.595,153.786 L518.993,153.786 L518.993,182.758 L538.138,182.758 L538.138,31.586 L536.225,31.586" id="Fill-34"></path>
        </g>
    </g>
</svg>